G04 Layer_Color=16711935*
%FSLAX23Y23*%
%MOIN*%
G70*
G01*
G75*
%ADD26R,0.039X0.043*%
%ADD29R,0.067X0.067*%
%ADD30C,0.067*%
%ADD31R,0.067X0.067*%
%ADD32C,0.061*%
%ADD33R,0.061X0.061*%
%ADD34R,0.061X0.061*%
%ADD35C,0.008*%
%ADD36C,0.038*%
%ADD37C,0.015*%
D26*
X4578Y2925D02*
D03*
X4522D02*
D03*
D29*
X4300Y4000D02*
D03*
X3700Y2100D02*
D03*
X4100D02*
D03*
X4500D02*
D03*
X4900D02*
D03*
X3900Y4000D02*
D03*
X4800Y2600D02*
D03*
D30*
X4400Y4000D02*
D03*
X3500Y3400D02*
D03*
Y3300D02*
D03*
Y2900D02*
D03*
Y2800D02*
D03*
Y2700D02*
D03*
Y2600D02*
D03*
X3600Y2100D02*
D03*
X4000D02*
D03*
X4400D02*
D03*
X4800D02*
D03*
X5300Y2600D02*
D03*
Y3000D02*
D03*
Y3400D02*
D03*
Y3800D02*
D03*
X3800Y4000D02*
D03*
X4500Y2600D02*
D03*
X4600D02*
D03*
X4700D02*
D03*
X3700D02*
D03*
Y2700D02*
D03*
Y2800D02*
D03*
Y2900D02*
D03*
Y3400D02*
D03*
Y3500D02*
D03*
Y3600D02*
D03*
Y3700D02*
D03*
D31*
X3500Y3500D02*
D03*
Y3000D02*
D03*
X5300Y2700D02*
D03*
Y3100D02*
D03*
Y3500D02*
D03*
Y3900D02*
D03*
X3700Y3000D02*
D03*
Y3800D02*
D03*
D32*
X4232Y3670D02*
D03*
X4037Y2625D02*
D03*
X3942Y3670D02*
D03*
Y3850D02*
D03*
X4790Y3092D02*
D03*
D33*
X4428Y3670D02*
D03*
X4233Y2625D02*
D03*
X4138Y3670D02*
D03*
Y3850D02*
D03*
D34*
X4790Y3288D02*
D03*
D35*
X3400Y4100D02*
D03*
X5500D02*
D03*
Y1900D02*
D03*
X3400D02*
D03*
D36*
X4350Y3125D02*
D03*
X4050Y2975D02*
D03*
X4060Y3060D02*
D03*
X4101Y3300D02*
D03*
X4370D02*
D03*
X4295Y3075D02*
D03*
X4220Y3150D02*
D03*
X3970Y2951D02*
D03*
X3915Y2908D02*
D03*
X4138Y3432D02*
D03*
X4500Y3195D02*
D03*
X4385Y2600D02*
D03*
X3920Y3190D02*
D03*
X3973Y3318D02*
D03*
X3915Y3360D02*
D03*
X4020Y3530D02*
D03*
X3915Y3585D02*
D03*
X3920Y3430D02*
D03*
X3830Y3360D02*
D03*
X4162Y2842D02*
D03*
D37*
X4219Y3311D02*
D03*
X4035Y3220D02*
D03*
X4199Y2969D02*
D03*
Y3070D02*
D03*
X4139Y3130D02*
D03*
M02*
