G04 Layer_Color=255*
%FSLAX23Y23*%
%MOIN*%
G70*
G01*
G75*
%ADD10R,0.035X0.031*%
%ADD11R,0.031X0.035*%
%ADD12R,0.039X0.008*%
%ADD13R,0.008X0.039*%
%ADD17R,0.059X0.059*%
%ADD18C,0.059*%
%ADD19R,0.059X0.059*%
%ADD20C,0.053*%
%ADD21R,0.053X0.053*%
%ADD22R,0.053X0.053*%
D10*
X3745Y2327D02*
D03*
Y2383D02*
D03*
X4145Y2327D02*
D03*
Y2383D02*
D03*
X3600Y3300D02*
D03*
Y3355D02*
D03*
X4550Y2327D02*
D03*
Y2383D02*
D03*
X5010Y2678D02*
D03*
Y2622D02*
D03*
X4945Y2332D02*
D03*
Y2388D02*
D03*
X5010Y3078D02*
D03*
Y3022D02*
D03*
X4945Y3078D02*
D03*
Y3022D02*
D03*
Y2678D02*
D03*
Y2622D02*
D03*
Y3478D02*
D03*
Y3422D02*
D03*
X5010Y3478D02*
D03*
Y3422D02*
D03*
X5075Y3022D02*
D03*
Y3078D02*
D03*
Y2622D02*
D03*
Y2678D02*
D03*
Y3422D02*
D03*
Y3478D02*
D03*
X5010Y3878D02*
D03*
Y3822D02*
D03*
X4945Y3878D02*
D03*
Y3822D02*
D03*
X5075Y3822D02*
D03*
Y3878D02*
D03*
X4550Y3162D02*
D03*
Y3218D02*
D03*
X4610Y3162D02*
D03*
Y3218D02*
D03*
X4670Y3162D02*
D03*
Y3218D02*
D03*
X3810Y3172D02*
D03*
Y3228D02*
D03*
X3870Y3172D02*
D03*
Y3228D02*
D03*
X3500Y3673D02*
D03*
Y3617D02*
D03*
D11*
X3872Y3540D02*
D03*
X3928D02*
D03*
X3872Y3480D02*
D03*
X3928D02*
D03*
X4478Y2390D02*
D03*
X4422D02*
D03*
X4478Y2455D02*
D03*
X4422D02*
D03*
X5068Y3545D02*
D03*
X5012D02*
D03*
X3678Y2450D02*
D03*
X3622D02*
D03*
X4078Y2390D02*
D03*
X4022D02*
D03*
X4078Y2455D02*
D03*
X4022D02*
D03*
X5068Y3145D02*
D03*
X5012D02*
D03*
X5073Y2745D02*
D03*
X5017D02*
D03*
X4878Y2390D02*
D03*
X4822D02*
D03*
X4878Y2455D02*
D03*
X4822D02*
D03*
X3622Y2325D02*
D03*
X3678D02*
D03*
X3678Y2390D02*
D03*
X3622D02*
D03*
X4822Y2325D02*
D03*
X4878D02*
D03*
X4422D02*
D03*
X4478D02*
D03*
X4022D02*
D03*
X4078D02*
D03*
X4082Y3480D02*
D03*
X4138D02*
D03*
X4082Y3540D02*
D03*
X4138D02*
D03*
X4222Y3480D02*
D03*
X4278D02*
D03*
X4222Y3540D02*
D03*
X4278D02*
D03*
X4162Y2800D02*
D03*
X4218D02*
D03*
X4162Y2740D02*
D03*
X4218D02*
D03*
X5068Y3945D02*
D03*
X5012D02*
D03*
D12*
X3973Y3287D02*
D03*
Y3268D02*
D03*
Y3248D02*
D03*
Y3228D02*
D03*
Y3209D02*
D03*
Y3189D02*
D03*
Y3169D02*
D03*
Y3150D02*
D03*
Y3130D02*
D03*
Y3110D02*
D03*
Y3091D02*
D03*
Y3071D02*
D03*
Y3051D02*
D03*
Y3032D02*
D03*
Y3012D02*
D03*
Y2992D02*
D03*
X4445D02*
D03*
Y3012D02*
D03*
Y3032D02*
D03*
Y3051D02*
D03*
Y3071D02*
D03*
Y3091D02*
D03*
Y3110D02*
D03*
Y3130D02*
D03*
Y3150D02*
D03*
Y3169D02*
D03*
Y3189D02*
D03*
Y3209D02*
D03*
Y3228D02*
D03*
Y3248D02*
D03*
Y3268D02*
D03*
Y3287D02*
D03*
D13*
X4061Y2904D02*
D03*
X4081D02*
D03*
X4101D02*
D03*
X4120D02*
D03*
X4140D02*
D03*
X4160D02*
D03*
X4179D02*
D03*
X4199D02*
D03*
X4219D02*
D03*
X4238D02*
D03*
X4258D02*
D03*
X4278D02*
D03*
X4297D02*
D03*
X4317D02*
D03*
X4337D02*
D03*
X4356D02*
D03*
Y3376D02*
D03*
X4337D02*
D03*
X4317D02*
D03*
X4297D02*
D03*
X4278D02*
D03*
X4258D02*
D03*
X4238D02*
D03*
X4219D02*
D03*
X4199D02*
D03*
X4179D02*
D03*
X4160D02*
D03*
X4140D02*
D03*
X4120D02*
D03*
X4101D02*
D03*
X4081D02*
D03*
X4061D02*
D03*
D17*
X4300Y4000D02*
D03*
X3700Y2100D02*
D03*
X4100D02*
D03*
X4500D02*
D03*
X4900D02*
D03*
X3900Y4000D02*
D03*
X4800Y2600D02*
D03*
D18*
X4400Y4000D02*
D03*
X3500Y3400D02*
D03*
Y3300D02*
D03*
Y2900D02*
D03*
Y2800D02*
D03*
Y2700D02*
D03*
Y2600D02*
D03*
X3600Y2100D02*
D03*
X4000D02*
D03*
X4400D02*
D03*
X4800D02*
D03*
X5300Y2600D02*
D03*
Y3000D02*
D03*
Y3400D02*
D03*
Y3800D02*
D03*
X3800Y4000D02*
D03*
X4500Y2600D02*
D03*
X4600D02*
D03*
X4700D02*
D03*
X3700D02*
D03*
Y2700D02*
D03*
Y2800D02*
D03*
Y2900D02*
D03*
Y3400D02*
D03*
Y3500D02*
D03*
Y3600D02*
D03*
Y3700D02*
D03*
D19*
X3500Y3500D02*
D03*
Y3000D02*
D03*
X5300Y2700D02*
D03*
Y3100D02*
D03*
Y3500D02*
D03*
Y3900D02*
D03*
X3700Y3000D02*
D03*
Y3800D02*
D03*
D20*
X4232Y3670D02*
D03*
X4037Y2625D02*
D03*
X3942Y3670D02*
D03*
Y3850D02*
D03*
X4790Y3092D02*
D03*
D21*
X4428Y3670D02*
D03*
X4233Y2625D02*
D03*
X4138Y3670D02*
D03*
Y3850D02*
D03*
D22*
X4790Y3288D02*
D03*
M02*
