M48
;Layer_Color=9474304
;FILE_FORMAT=2:3
INCH,LZ
;TYPE=PLATED
T1F00S00C0.015
T2F00S00C0.031
T3F00S00C0.035
T4F00S00C0.126
%
T01
X03915Y02908
X0397Y02951
X0405Y02975
X0406Y0306
X04199Y0307
X04295Y03075
X04199Y02969
X04162Y02842
X04385Y026
X0435Y03125
X0422Y0315
X04139Y0313
X04035Y0322
X0392Y0319
X03915Y0336
X0392Y0343
X03915Y03585
X0402Y0353
X04138Y03432
X04101Y033
X04219Y03311
X0437Y033
X045Y03195
X03973Y03318
X0383Y0336
T02
X0479Y03092
X04233Y02625
X04037Y02625
X03942Y0367
Y0385
X04138Y0385
Y0367
X04232Y0367
X04428Y0367
X0479Y03288
T03
X048Y021
X049
X048Y026
X047
X053
Y027
Y03
Y031
X046Y026
X045
Y021
X044
X041
X04
X037
X036
X035Y026
Y027
Y028
Y029
Y03
X037
Y029
Y028
Y027
Y026
Y034
Y035
Y036
Y037
Y038
X038Y04
X039
X043
X044
X035Y035
Y034
Y033
X053Y034
Y035
Y038
Y039
T04
X055Y019
X034
Y041
X055
M30
