G04 Layer_Color=8388736*
%FSLAX23Y23*%
%MOIN*%
G70*
G01*
G75*
%ADD25R,0.043X0.039*%
%ADD26R,0.039X0.043*%
%ADD27R,0.047X0.016*%
%ADD28R,0.016X0.047*%
%ADD29R,0.067X0.067*%
%ADD30C,0.067*%
%ADD31R,0.067X0.067*%
%ADD32C,0.061*%
%ADD33R,0.061X0.061*%
%ADD34R,0.061X0.061*%
%ADD35C,0.008*%
%ADD36C,0.038*%
%ADD37C,0.015*%
D25*
X3745Y2327D02*
D03*
Y2383D02*
D03*
X4145Y2327D02*
D03*
Y2383D02*
D03*
X3600Y3300D02*
D03*
Y3355D02*
D03*
X4550Y2327D02*
D03*
Y2383D02*
D03*
X5010Y2678D02*
D03*
Y2622D02*
D03*
X4945Y2332D02*
D03*
Y2388D02*
D03*
X5010Y3078D02*
D03*
Y3022D02*
D03*
X4945Y3078D02*
D03*
Y3022D02*
D03*
Y2678D02*
D03*
Y2622D02*
D03*
Y3478D02*
D03*
Y3422D02*
D03*
X5010Y3478D02*
D03*
Y3422D02*
D03*
X5075Y3022D02*
D03*
Y3078D02*
D03*
Y2622D02*
D03*
Y2678D02*
D03*
Y3422D02*
D03*
Y3478D02*
D03*
X5010Y3878D02*
D03*
Y3822D02*
D03*
X4945Y3878D02*
D03*
Y3822D02*
D03*
X5075Y3822D02*
D03*
Y3878D02*
D03*
X4550Y3162D02*
D03*
Y3218D02*
D03*
X4610Y3162D02*
D03*
Y3218D02*
D03*
X4670Y3162D02*
D03*
Y3218D02*
D03*
X3810Y3172D02*
D03*
Y3228D02*
D03*
X3870Y3172D02*
D03*
Y3228D02*
D03*
X3500Y3673D02*
D03*
Y3617D02*
D03*
D26*
X3872Y3540D02*
D03*
X3928D02*
D03*
X3872Y3480D02*
D03*
X3928D02*
D03*
X4478Y2390D02*
D03*
X4422D02*
D03*
X4478Y2455D02*
D03*
X4422D02*
D03*
X5068Y3545D02*
D03*
X5012D02*
D03*
X3678Y2450D02*
D03*
X3622D02*
D03*
X4078Y2390D02*
D03*
X4022D02*
D03*
X4078Y2455D02*
D03*
X4022D02*
D03*
X5068Y3145D02*
D03*
X5012D02*
D03*
X5073Y2745D02*
D03*
X5017D02*
D03*
X4878Y2390D02*
D03*
X4822D02*
D03*
X4878Y2455D02*
D03*
X4822D02*
D03*
X3622Y2325D02*
D03*
X3678D02*
D03*
X3678Y2390D02*
D03*
X3622D02*
D03*
X4822Y2325D02*
D03*
X4878D02*
D03*
X4422D02*
D03*
X4478D02*
D03*
X4022D02*
D03*
X4078D02*
D03*
X4082Y3480D02*
D03*
X4138D02*
D03*
X4082Y3540D02*
D03*
X4138D02*
D03*
X4222Y3480D02*
D03*
X4278D02*
D03*
X4222Y3540D02*
D03*
X4278D02*
D03*
X4162Y2800D02*
D03*
X4218D02*
D03*
X4162Y2740D02*
D03*
X4218D02*
D03*
X5068Y3945D02*
D03*
X5012D02*
D03*
D27*
X3973Y3287D02*
D03*
Y3268D02*
D03*
Y3248D02*
D03*
Y3228D02*
D03*
Y3209D02*
D03*
Y3189D02*
D03*
Y3169D02*
D03*
Y3150D02*
D03*
Y3130D02*
D03*
Y3110D02*
D03*
Y3091D02*
D03*
Y3071D02*
D03*
Y3051D02*
D03*
Y3032D02*
D03*
Y3012D02*
D03*
Y2992D02*
D03*
X4445D02*
D03*
Y3012D02*
D03*
Y3032D02*
D03*
Y3051D02*
D03*
Y3071D02*
D03*
Y3091D02*
D03*
Y3110D02*
D03*
Y3130D02*
D03*
Y3150D02*
D03*
Y3169D02*
D03*
Y3189D02*
D03*
Y3209D02*
D03*
Y3228D02*
D03*
Y3248D02*
D03*
Y3268D02*
D03*
Y3287D02*
D03*
D28*
X4061Y2904D02*
D03*
X4081D02*
D03*
X4101D02*
D03*
X4120D02*
D03*
X4140D02*
D03*
X4160D02*
D03*
X4179D02*
D03*
X4199D02*
D03*
X4219D02*
D03*
X4238D02*
D03*
X4258D02*
D03*
X4278D02*
D03*
X4297D02*
D03*
X4317D02*
D03*
X4337D02*
D03*
X4356D02*
D03*
Y3376D02*
D03*
X4337D02*
D03*
X4317D02*
D03*
X4297D02*
D03*
X4278D02*
D03*
X4258D02*
D03*
X4238D02*
D03*
X4219D02*
D03*
X4199D02*
D03*
X4179D02*
D03*
X4160D02*
D03*
X4140D02*
D03*
X4120D02*
D03*
X4101D02*
D03*
X4081D02*
D03*
X4061D02*
D03*
D29*
X4300Y4000D02*
D03*
X3700Y2100D02*
D03*
X4100D02*
D03*
X4500D02*
D03*
X4900D02*
D03*
X3900Y4000D02*
D03*
X4800Y2600D02*
D03*
D30*
X4400Y4000D02*
D03*
X3500Y3400D02*
D03*
Y3300D02*
D03*
Y2900D02*
D03*
Y2800D02*
D03*
Y2700D02*
D03*
Y2600D02*
D03*
X3600Y2100D02*
D03*
X4000D02*
D03*
X4400D02*
D03*
X4800D02*
D03*
X5300Y2600D02*
D03*
Y3000D02*
D03*
Y3400D02*
D03*
Y3800D02*
D03*
X3800Y4000D02*
D03*
X4500Y2600D02*
D03*
X4600D02*
D03*
X4700D02*
D03*
X3700D02*
D03*
Y2700D02*
D03*
Y2800D02*
D03*
Y2900D02*
D03*
Y3400D02*
D03*
Y3500D02*
D03*
Y3600D02*
D03*
Y3700D02*
D03*
D31*
X3500Y3500D02*
D03*
Y3000D02*
D03*
X5300Y2700D02*
D03*
Y3100D02*
D03*
Y3500D02*
D03*
Y3900D02*
D03*
X3700Y3000D02*
D03*
Y3800D02*
D03*
D32*
X4232Y3670D02*
D03*
X4037Y2625D02*
D03*
X3942Y3670D02*
D03*
Y3850D02*
D03*
X4790Y3092D02*
D03*
D33*
X4428Y3670D02*
D03*
X4233Y2625D02*
D03*
X4138Y3670D02*
D03*
Y3850D02*
D03*
D34*
X4790Y3288D02*
D03*
D35*
X3400Y4100D02*
D03*
X5500D02*
D03*
Y1900D02*
D03*
X3400D02*
D03*
D36*
X4350Y3125D02*
D03*
X4050Y2975D02*
D03*
X4060Y3060D02*
D03*
X4101Y3300D02*
D03*
X4370D02*
D03*
X4295Y3075D02*
D03*
X4220Y3150D02*
D03*
X3970Y2951D02*
D03*
X3915Y2908D02*
D03*
X4138Y3432D02*
D03*
X4500Y3195D02*
D03*
X4385Y2600D02*
D03*
X3920Y3190D02*
D03*
X3973Y3318D02*
D03*
X3915Y3360D02*
D03*
X4020Y3530D02*
D03*
X3915Y3585D02*
D03*
X3920Y3430D02*
D03*
X3830Y3360D02*
D03*
X4162Y2842D02*
D03*
D37*
X4219Y3311D02*
D03*
X4035Y3220D02*
D03*
X4199Y2969D02*
D03*
Y3070D02*
D03*
X4139Y3130D02*
D03*
M02*
