G04 Layer_Color=65535*
%FSLAX23Y23*%
%MOIN*%
G70*
G01*
G75*
%ADD16C,0.010*%
%ADD24C,0.008*%
D16*
X5127Y2277D02*
X5117D01*
X5122D01*
Y2251D01*
X5117Y2245D01*
X5111D01*
X5106Y2251D01*
X5138Y2267D02*
Y2251D01*
X5143Y2245D01*
X5159D01*
Y2267D01*
X5170Y2245D02*
X5186D01*
X5191Y2251D01*
X5186Y2256D01*
X5175D01*
X5170Y2261D01*
X5175Y2267D01*
X5191D01*
X5207Y2272D02*
Y2267D01*
X5202D01*
X5213D01*
X5207D01*
Y2251D01*
X5213Y2245D01*
X5229D02*
X5239D01*
X5234D01*
Y2267D01*
X5229D01*
X5255Y2245D02*
Y2267D01*
X5271D01*
X5277Y2261D01*
Y2245D01*
X5335Y2277D02*
X5325D01*
X5319Y2272D01*
Y2251D01*
X5325Y2245D01*
X5335D01*
X5341Y2251D01*
Y2272D01*
X5335Y2277D01*
X5351Y2245D02*
Y2267D01*
X5367D01*
X5373Y2261D01*
Y2245D01*
X5394Y2235D02*
X5399D01*
X5405Y2240D01*
Y2267D01*
X5389D01*
X5383Y2261D01*
Y2251D01*
X5389Y2245D01*
X5405D01*
X5170Y2199D02*
X5175Y2204D01*
X5186D01*
X5191Y2199D01*
Y2178D01*
X5186Y2172D01*
X5175D01*
X5170Y2178D01*
Y2199D01*
X5202D02*
X5207Y2204D01*
X5218D01*
X5223Y2199D01*
Y2194D01*
X5218Y2188D01*
X5213D01*
X5218D01*
X5223Y2183D01*
Y2178D01*
X5218Y2172D01*
X5207D01*
X5202Y2178D01*
X5234Y2172D02*
X5245D01*
X5239D01*
Y2204D01*
X5234Y2199D01*
X5282Y2172D02*
X5261D01*
X5282Y2194D01*
Y2199D01*
X5277Y2204D01*
X5266D01*
X5261Y2199D01*
X5293Y2172D02*
X5303D01*
X5298D01*
Y2204D01*
X5293Y2199D01*
X5319Y2204D02*
X5341D01*
Y2199D01*
X5319Y2178D01*
Y2172D01*
X5031Y2137D02*
X5026Y2142D01*
X5015D01*
X5010Y2137D01*
Y2115D01*
X5015Y2110D01*
X5026D01*
X5031Y2115D01*
X5063Y2137D02*
X5058Y2142D01*
X5047D01*
X5042Y2137D01*
Y2131D01*
X5047Y2126D01*
X5058D01*
X5063Y2121D01*
Y2115D01*
X5058Y2110D01*
X5047D01*
X5042Y2115D01*
X5090Y2110D02*
Y2142D01*
X5074Y2126D01*
X5095D01*
X5127Y2110D02*
X5106D01*
X5127Y2131D01*
Y2137D01*
X5122Y2142D01*
X5111D01*
X5106Y2137D01*
X5154Y2110D02*
Y2142D01*
X5138Y2126D01*
X5159D01*
X5186Y2110D02*
Y2142D01*
X5170Y2126D01*
X5191D01*
X5202Y2137D02*
X5207Y2142D01*
X5218D01*
X5223Y2137D01*
Y2131D01*
X5218Y2126D01*
X5223Y2121D01*
Y2115D01*
X5218Y2110D01*
X5207D01*
X5202Y2115D01*
Y2121D01*
X5207Y2126D01*
X5202Y2131D01*
Y2137D01*
X5207Y2126D02*
X5218D01*
X5266Y2142D02*
Y2110D01*
X5282D01*
X5287Y2115D01*
Y2121D01*
X5282Y2126D01*
X5266D01*
X5282D01*
X5287Y2131D01*
Y2137D01*
X5282Y2142D01*
X5266D01*
X5298Y2131D02*
Y2110D01*
Y2121D01*
X5303Y2126D01*
X5309Y2131D01*
X5314D01*
X5346Y2110D02*
X5335D01*
X5330Y2115D01*
Y2126D01*
X5335Y2131D01*
X5346D01*
X5351Y2126D01*
Y2121D01*
X5330D01*
X5367Y2131D02*
X5378D01*
X5383Y2126D01*
Y2110D01*
X5367D01*
X5362Y2115D01*
X5367Y2121D01*
X5383D01*
X5394Y2110D02*
Y2142D01*
Y2121D02*
X5410Y2131D01*
X5394Y2121D02*
X5410Y2110D01*
X5431D02*
X5442D01*
X5447Y2115D01*
Y2126D01*
X5442Y2131D01*
X5431D01*
X5426Y2126D01*
Y2115D01*
X5431Y2110D01*
X5458Y2131D02*
Y2115D01*
X5463Y2110D01*
X5479D01*
Y2131D01*
X5495Y2137D02*
Y2131D01*
X5490D01*
X5501D01*
X5495D01*
Y2115D01*
X5501Y2110D01*
X4500Y3985D02*
Y4017D01*
X4516D01*
X4521Y4012D01*
Y4001D01*
X4516Y3996D01*
X4500D01*
X4537Y3985D02*
X4548D01*
X4553Y3990D01*
Y4001D01*
X4548Y4006D01*
X4537D01*
X4532Y4001D01*
Y3990D01*
X4537Y3985D01*
X4564Y4006D02*
Y3990D01*
X4569Y3985D01*
X4575Y3990D01*
X4580Y3985D01*
X4585Y3990D01*
Y4006D01*
X4612Y3985D02*
X4601D01*
X4596Y3990D01*
Y4001D01*
X4601Y4006D01*
X4612D01*
X4617Y4001D01*
Y3996D01*
X4596D01*
X4628Y4006D02*
Y3985D01*
Y3996D01*
X4633Y4001D01*
X4639Y4006D01*
X4644D01*
X4692Y4017D02*
X4703D01*
X4697D01*
Y3985D01*
X4692D01*
X4703D01*
X4719D02*
Y4006D01*
X4735D01*
X4740Y4001D01*
Y3985D01*
X4281Y3922D02*
X4260D01*
Y3906D01*
X4271Y3911D01*
X4276D01*
X4281Y3906D01*
Y3895D01*
X4276Y3890D01*
X4265D01*
X4260Y3895D01*
X4292Y3922D02*
Y3901D01*
X4303Y3890D01*
X4313Y3901D01*
Y3922D01*
X4381Y3917D02*
X4376Y3922D01*
X4365D01*
X4360Y3917D01*
Y3895D01*
X4365Y3890D01*
X4376D01*
X4381Y3895D01*
Y3906D01*
X4371D01*
X4392Y3890D02*
Y3922D01*
X4413Y3890D01*
Y3922D01*
X4424D02*
Y3890D01*
X4440D01*
X4445Y3895D01*
Y3917D01*
X4440Y3922D01*
X4424D01*
X3710Y3912D02*
Y3891D01*
X3721Y3880D01*
X3731Y3891D01*
Y3912D01*
X3763Y3907D02*
X3758Y3912D01*
X3747D01*
X3742Y3907D01*
Y3885D01*
X3747Y3880D01*
X3758D01*
X3763Y3885D01*
X3774Y3912D02*
X3795D01*
X3785D01*
Y3880D01*
X3806D02*
Y3912D01*
X3822D01*
X3827Y3907D01*
Y3896D01*
X3822Y3891D01*
X3806D01*
X3817D02*
X3827Y3880D01*
X3838Y3912D02*
Y3880D01*
X3859D01*
X4021Y4012D02*
X4000D01*
Y3996D01*
X4011Y4001D01*
X4016D01*
X4021Y3996D01*
Y3985D01*
X4016Y3980D01*
X4005D01*
X4000Y3985D01*
X4032Y4012D02*
Y3991D01*
X4043Y3980D01*
X4053Y3991D01*
Y4012D01*
X3780Y3812D02*
X3791D01*
X3785D01*
Y3780D01*
X3780D01*
X3791D01*
X3807D02*
Y3812D01*
X3828Y3780D01*
Y3812D01*
X3839D02*
X3860D01*
X3849D01*
Y3780D01*
X3780Y3680D02*
Y3712D01*
X3796D01*
X3801Y3707D01*
Y3696D01*
X3796Y3691D01*
X3780D01*
X3791D02*
X3801Y3680D01*
X3833Y3707D02*
X3828Y3712D01*
X3817D01*
X3812Y3707D01*
Y3701D01*
X3817Y3696D01*
X3828D01*
X3833Y3691D01*
Y3685D01*
X3828Y3680D01*
X3817D01*
X3812Y3685D01*
X3844Y3712D02*
X3865D01*
X3855D01*
Y3680D01*
X3793Y3591D02*
X3788Y3586D01*
Y3575D01*
X3793Y3570D01*
X3799D01*
X3804Y3575D01*
Y3586D01*
X3809Y3591D01*
X3815D01*
X3820Y3586D01*
Y3575D01*
X3815Y3570D01*
X3793Y3623D02*
X3788Y3618D01*
Y3607D01*
X3793Y3602D01*
X3815D01*
X3820Y3607D01*
Y3618D01*
X3815Y3623D01*
X3788Y3634D02*
X3820D01*
Y3655D01*
X3793Y3481D02*
X3788Y3476D01*
Y3465D01*
X3793Y3460D01*
X3799D01*
X3804Y3465D01*
Y3476D01*
X3809Y3481D01*
X3815D01*
X3820Y3476D01*
Y3465D01*
X3815Y3460D01*
X3788Y3492D02*
X3820D01*
Y3508D01*
X3815Y3513D01*
X3793D01*
X3788Y3508D01*
Y3492D01*
X3820Y3524D02*
X3799D01*
X3788Y3535D01*
X3799Y3545D01*
X3820D01*
X3804D01*
Y3524D01*
X3681Y3317D02*
X3676Y3322D01*
X3665D01*
X3660Y3317D01*
Y3295D01*
X3665Y3290D01*
X3676D01*
X3681Y3295D01*
Y3306D01*
X3671D01*
X3692Y3290D02*
Y3322D01*
X3713Y3290D01*
Y3322D01*
X3724D02*
Y3290D01*
X3740D01*
X3745Y3295D01*
Y3317D01*
X3740Y3322D01*
X3724D01*
X3356Y3307D02*
X3351Y3312D01*
X3340D01*
X3335Y3307D01*
Y3285D01*
X3340Y3280D01*
X3351D01*
X3356Y3285D01*
Y3296D01*
X3346D01*
X3367Y3280D02*
Y3312D01*
X3388Y3280D01*
Y3312D01*
X3399D02*
Y3280D01*
X3415D01*
X3420Y3285D01*
Y3307D01*
X3415Y3312D01*
X3399D01*
X3363Y3445D02*
X3384D01*
X3395Y3456D01*
X3384Y3466D01*
X3363D01*
X3368Y3498D02*
X3363Y3493D01*
Y3482D01*
X3368Y3477D01*
X3390D01*
X3395Y3482D01*
Y3493D01*
X3390Y3498D01*
X3363Y3509D02*
Y3530D01*
Y3520D01*
X3395D01*
Y3541D02*
X3363D01*
Y3557D01*
X3368Y3562D01*
X3379D01*
X3384Y3557D01*
Y3541D01*
Y3552D02*
X3395Y3562D01*
X3363Y3573D02*
X3395D01*
Y3594D01*
X3345Y3380D02*
Y3407D01*
X3358Y3420D01*
X3372Y3407D01*
Y3380D01*
Y3400D01*
X3345D01*
X3385Y3413D02*
X3392Y3420D01*
X3405D01*
X3412Y3413D01*
Y3387D01*
X3405Y3380D01*
X3392D01*
X3385Y3387D01*
Y3413D01*
X3770Y2985D02*
Y3017D01*
X3781Y3006D01*
X3791Y3017D01*
Y2985D01*
X3823Y3012D02*
X3818Y3017D01*
X3807D01*
X3802Y3012D01*
Y2990D01*
X3807Y2985D01*
X3818D01*
X3823Y2990D01*
X3834Y3017D02*
Y2985D01*
X3855D01*
X3866Y3017D02*
Y2985D01*
Y2996D01*
X3887Y3017D01*
X3871Y3001D01*
X3887Y2985D01*
X3460Y3080D02*
Y3101D01*
X3471Y3112D01*
X3481Y3101D01*
Y3080D01*
Y3096D01*
X3460D01*
X3492Y3112D02*
Y3080D01*
X3508D01*
X3513Y3085D01*
Y3107D01*
X3508Y3112D01*
X3492D01*
X3545Y3107D02*
X3540Y3112D01*
X3529D01*
X3524Y3107D01*
Y3085D01*
X3529Y3080D01*
X3540D01*
X3545Y3085D01*
X3660Y3112D02*
Y3080D01*
X3676D01*
X3681Y3085D01*
Y3107D01*
X3676Y3112D01*
X3660D01*
X3692Y3080D02*
Y3101D01*
X3703Y3112D01*
X3713Y3101D01*
Y3080D01*
Y3096D01*
X3692D01*
X3745Y3107D02*
X3740Y3112D01*
X3729D01*
X3724Y3107D01*
Y3085D01*
X3729Y3080D01*
X3740D01*
X3745Y3085D01*
X3791Y2917D02*
X3786Y2922D01*
X3775D01*
X3770Y2917D01*
Y2911D01*
X3775Y2906D01*
X3786D01*
X3791Y2901D01*
Y2895D01*
X3786Y2890D01*
X3775D01*
X3770Y2895D01*
X3823Y2917D02*
X3818Y2922D01*
X3807D01*
X3802Y2917D01*
Y2895D01*
X3807Y2890D01*
X3818D01*
X3823Y2895D01*
X3834Y2922D02*
Y2890D01*
X3855D01*
X3866Y2922D02*
Y2890D01*
Y2901D01*
X3887Y2922D01*
X3871Y2906D01*
X3887Y2890D01*
X3770Y2817D02*
Y2785D01*
X3791D01*
X3802D02*
Y2817D01*
X3818D01*
X3823Y2812D01*
Y2801D01*
X3818Y2796D01*
X3802D01*
X3813D02*
X3823Y2785D01*
X3855Y2812D02*
X3850Y2817D01*
X3839D01*
X3834Y2812D01*
Y2790D01*
X3839Y2785D01*
X3850D01*
X3855Y2790D01*
X3866Y2817D02*
Y2785D01*
Y2796D01*
X3887Y2817D01*
X3871Y2801D01*
X3887Y2785D01*
X3791Y2712D02*
X3786Y2717D01*
X3775D01*
X3770Y2712D01*
Y2706D01*
X3775Y2701D01*
X3786D01*
X3791Y2696D01*
Y2690D01*
X3786Y2685D01*
X3775D01*
X3770Y2690D01*
X3802Y2717D02*
Y2685D01*
X3818D01*
X3823Y2690D01*
Y2712D01*
X3818Y2717D01*
X3802D01*
X3834D02*
X3845D01*
X3839D01*
Y2685D01*
X3834D01*
X3845D01*
X3588Y2681D02*
X3583Y2676D01*
Y2665D01*
X3588Y2660D01*
X3594D01*
X3599Y2665D01*
Y2676D01*
X3604Y2681D01*
X3610D01*
X3615Y2676D01*
Y2665D01*
X3610Y2660D01*
X3583Y2692D02*
X3615D01*
Y2708D01*
X3610Y2713D01*
X3588D01*
X3583Y2708D01*
Y2692D01*
Y2740D02*
Y2729D01*
X3588Y2724D01*
X3610D01*
X3615Y2729D01*
Y2740D01*
X3610Y2745D01*
X3588D01*
X3583Y2740D01*
X3791Y2612D02*
X3786Y2617D01*
X3775D01*
X3770Y2612D01*
Y2590D01*
X3775Y2585D01*
X3786D01*
X3791Y2590D01*
Y2601D01*
X3781D01*
X3802Y2585D02*
Y2617D01*
X3823Y2585D01*
Y2617D01*
X3834D02*
Y2585D01*
X3850D01*
X3855Y2590D01*
Y2612D01*
X3850Y2617D01*
X3834D01*
X4460Y2695D02*
Y2716D01*
X4471Y2727D01*
X4481Y2716D01*
Y2695D01*
Y2711D01*
X4460D01*
X4492Y2727D02*
Y2700D01*
X4497Y2695D01*
X4508D01*
X4513Y2700D01*
Y2727D01*
X4524D02*
X4545Y2695D01*
Y2727D02*
X4524Y2695D01*
X4476Y2522D02*
X4471Y2527D01*
X4460D01*
X4455Y2522D01*
Y2500D01*
X4460Y2495D01*
X4471D01*
X4476Y2500D01*
Y2511D01*
X4466D01*
X4487Y2495D02*
Y2527D01*
X4508Y2495D01*
Y2527D01*
X4519D02*
Y2495D01*
X4535D01*
X4540Y2500D01*
Y2522D01*
X4535Y2527D01*
X4519D01*
X4586Y2522D02*
X4581Y2527D01*
X4570D01*
X4565Y2522D01*
Y2516D01*
X4570Y2511D01*
X4581D01*
X4586Y2506D01*
Y2500D01*
X4581Y2495D01*
X4570D01*
X4565Y2500D01*
X4597Y2527D02*
Y2495D01*
X4613D01*
X4618Y2500D01*
Y2522D01*
X4613Y2527D01*
X4597D01*
X4629D02*
X4640D01*
X4634D01*
Y2495D01*
X4629D01*
X4640D01*
X4665Y2527D02*
Y2495D01*
X4686D01*
X4697D02*
Y2527D01*
X4713D01*
X4718Y2522D01*
Y2511D01*
X4713Y2506D01*
X4697D01*
X4708D02*
X4718Y2495D01*
X4750Y2522D02*
X4745Y2527D01*
X4734D01*
X4729Y2522D01*
Y2500D01*
X4734Y2495D01*
X4745D01*
X4750Y2500D01*
X4761Y2527D02*
Y2495D01*
Y2506D01*
X4782Y2527D01*
X4766Y2511D01*
X4782Y2495D01*
X4766Y2702D02*
X4761Y2707D01*
X4750D01*
X4745Y2702D01*
Y2696D01*
X4750Y2691D01*
X4761D01*
X4766Y2686D01*
Y2680D01*
X4761Y2675D01*
X4750D01*
X4745Y2680D01*
X4798Y2702D02*
X4793Y2707D01*
X4782D01*
X4777Y2702D01*
Y2680D01*
X4782Y2675D01*
X4793D01*
X4798Y2680D01*
X4809Y2707D02*
Y2675D01*
X4830D01*
X4841Y2707D02*
Y2675D01*
Y2686D01*
X4862Y2707D01*
X4846Y2691D01*
X4862Y2675D01*
X3571Y2027D02*
X3566Y2032D01*
X3555D01*
X3550Y2027D01*
Y2005D01*
X3555Y2000D01*
X3566D01*
X3571Y2005D01*
Y2016D01*
X3561D01*
X3582Y2000D02*
Y2032D01*
X3603Y2000D01*
Y2032D01*
X3614D02*
Y2000D01*
X3630D01*
X3635Y2005D01*
Y2027D01*
X3630Y2032D01*
X3614D01*
X3971Y2027D02*
X3966Y2032D01*
X3955D01*
X3950Y2027D01*
Y2005D01*
X3955Y2000D01*
X3966D01*
X3971Y2005D01*
Y2016D01*
X3961D01*
X3982Y2000D02*
Y2032D01*
X4003Y2000D01*
Y2032D01*
X4014D02*
Y2000D01*
X4030D01*
X4035Y2005D01*
Y2027D01*
X4030Y2032D01*
X4014D01*
X4371Y2027D02*
X4366Y2032D01*
X4355D01*
X4350Y2027D01*
Y2005D01*
X4355Y2000D01*
X4366D01*
X4371Y2005D01*
Y2016D01*
X4361D01*
X4382Y2000D02*
Y2032D01*
X4403Y2000D01*
Y2032D01*
X4414D02*
Y2000D01*
X4430D01*
X4435Y2005D01*
Y2027D01*
X4430Y2032D01*
X4414D01*
X4771Y2027D02*
X4766Y2032D01*
X4755D01*
X4750Y2027D01*
Y2005D01*
X4755Y2000D01*
X4766D01*
X4771Y2005D01*
Y2016D01*
X4761D01*
X4782Y2000D02*
Y2032D01*
X4803Y2000D01*
Y2032D01*
X4814D02*
Y2000D01*
X4830D01*
X4835Y2005D01*
Y2027D01*
X4830Y2032D01*
X4814D01*
X5373Y2571D02*
X5368Y2566D01*
Y2555D01*
X5373Y2550D01*
X5395D01*
X5400Y2555D01*
Y2566D01*
X5395Y2571D01*
X5384D01*
Y2561D01*
X5400Y2582D02*
X5368D01*
X5400Y2603D01*
X5368D01*
Y2614D02*
X5400D01*
Y2630D01*
X5395Y2635D01*
X5373D01*
X5368Y2630D01*
Y2614D01*
X5373Y2971D02*
X5368Y2966D01*
Y2955D01*
X5373Y2950D01*
X5395D01*
X5400Y2955D01*
Y2966D01*
X5395Y2971D01*
X5384D01*
Y2961D01*
X5400Y2982D02*
X5368D01*
X5400Y3003D01*
X5368D01*
Y3014D02*
X5400D01*
Y3030D01*
X5395Y3035D01*
X5373D01*
X5368Y3030D01*
Y3014D01*
X5373Y3371D02*
X5368Y3366D01*
Y3355D01*
X5373Y3350D01*
X5395D01*
X5400Y3355D01*
Y3366D01*
X5395Y3371D01*
X5384D01*
Y3361D01*
X5400Y3382D02*
X5368D01*
X5400Y3403D01*
X5368D01*
Y3414D02*
X5400D01*
Y3430D01*
X5395Y3435D01*
X5373D01*
X5368Y3430D01*
Y3414D01*
X5373Y3771D02*
X5368Y3766D01*
Y3755D01*
X5373Y3750D01*
X5395D01*
X5400Y3755D01*
Y3766D01*
X5395Y3771D01*
X5384D01*
Y3761D01*
X5400Y3782D02*
X5368D01*
X5400Y3803D01*
X5368D01*
Y3814D02*
X5400D01*
Y3830D01*
X5395Y3835D01*
X5373D01*
X5368Y3830D01*
Y3814D01*
X3390Y3212D02*
X3401D01*
X3395D01*
Y3180D01*
X3390D01*
X3401D01*
X3438D02*
X3417D01*
X3438Y3201D01*
Y3207D01*
X3433Y3212D01*
X3422D01*
X3417Y3207D01*
X3470D02*
X3465Y3212D01*
X3454D01*
X3449Y3207D01*
Y3185D01*
X3454Y3180D01*
X3465D01*
X3470Y3185D01*
X3513Y3180D02*
Y3201D01*
X3523Y3212D01*
X3534Y3201D01*
Y3180D01*
Y3196D01*
X3513D01*
X3566Y3212D02*
Y3180D01*
X3550D01*
X3545Y3185D01*
Y3196D01*
X3550Y3201D01*
X3566D01*
X3598Y3212D02*
Y3180D01*
X3582D01*
X3577Y3185D01*
Y3196D01*
X3582Y3201D01*
X3598D01*
X3609D02*
Y3180D01*
Y3191D01*
X3614Y3196D01*
X3619Y3201D01*
X3625D01*
D24*
X4258Y3637D02*
G03*
X4396Y3628I72J33D01*
G01*
Y3712D02*
G03*
X4258Y3703I-66J-42D01*
G01*
X4063Y2592D02*
G03*
X4201Y2583I72J33D01*
G01*
Y2667D02*
G03*
X4063Y2658I-66J-42D01*
G01*
X3968Y3637D02*
G03*
X4106Y3628I72J33D01*
G01*
Y3712D02*
G03*
X3968Y3703I-66J-42D01*
G01*
Y3817D02*
G03*
X4106Y3808I72J33D01*
G01*
Y3892D02*
G03*
X3968Y3883I-66J-42D01*
G01*
X4823Y3118D02*
G03*
X4832Y3256I-33J72D01*
G01*
X4748D02*
G03*
X4757Y3118I42J-66D01*
G01*
X4450Y3950D02*
Y4050D01*
X4250Y3950D02*
X4450D01*
X4250D02*
Y4050D01*
X4450D01*
X3450Y3250D02*
Y3550D01*
Y3250D02*
X3550D01*
Y3550D01*
X3450D02*
X3550D01*
X3450Y2550D02*
X3550D01*
X3450D02*
Y3050D01*
X3550Y2550D02*
Y3050D01*
X3450D02*
X3550D01*
Y2050D02*
Y2150D01*
X3750D01*
Y2050D02*
Y2150D01*
X3550Y2050D02*
X3750D01*
X3950D02*
Y2150D01*
X4150D01*
Y2050D02*
Y2150D01*
X3950Y2050D02*
X4150D01*
X4350D02*
Y2150D01*
X4550D01*
Y2050D02*
Y2150D01*
X4350Y2050D02*
X4550D01*
X4750D02*
Y2150D01*
X4950D01*
Y2050D02*
Y2150D01*
X4750Y2050D02*
X4950D01*
X5250Y2550D02*
X5350D01*
X5250D02*
Y2750D01*
X5350D01*
Y2550D02*
Y2750D01*
X5250Y2950D02*
X5350D01*
X5250D02*
Y3150D01*
X5350D01*
Y2950D02*
Y3150D01*
X5250Y3350D02*
X5350D01*
X5250D02*
Y3550D01*
X5350D01*
Y3350D02*
Y3550D01*
X5250Y3750D02*
X5350D01*
X5250D02*
Y3950D01*
X5350D01*
Y3750D02*
Y3950D01*
X3750D02*
Y4050D01*
X3950D01*
Y3950D02*
Y4050D01*
X3750Y3950D02*
X3950D01*
X4850Y2550D02*
Y2650D01*
X4450Y2550D02*
X4850D01*
X4450Y2650D02*
X4850D01*
X4450Y2550D02*
Y2650D01*
X3650Y3050D02*
X3750D01*
Y2550D02*
Y3050D01*
X3650Y2550D02*
Y3050D01*
Y2550D02*
X3750D01*
X3650Y3850D02*
X3750D01*
Y3350D02*
Y3850D01*
X3650Y3350D02*
Y3850D01*
Y3350D02*
X3750D01*
X4013Y2944D02*
Y3295D01*
Y2944D02*
X4404D01*
Y3335D01*
X4054D02*
X4404D01*
X4013Y3295D02*
X4054Y3335D01*
X3855Y3410D02*
Y3442D01*
X3871D01*
X3876Y3437D01*
Y3426D01*
X3871Y3421D01*
X3855D01*
X3866D02*
X3876Y3410D01*
X3908D02*
X3887D01*
X3908Y3431D01*
Y3437D01*
X3903Y3442D01*
X3892D01*
X3887Y3437D01*
X3919D02*
X3924Y3442D01*
X3935D01*
X3940Y3437D01*
Y3415D01*
X3935Y3410D01*
X3924D01*
X3919Y3415D01*
Y3437D01*
X3855Y3585D02*
Y3617D01*
X3871D01*
X3876Y3612D01*
Y3601D01*
X3871Y3596D01*
X3855D01*
X3866D02*
X3876Y3585D01*
X3887D02*
X3898D01*
X3892D01*
Y3617D01*
X3887Y3612D01*
X3914Y3590D02*
X3919Y3585D01*
X3930D01*
X3935Y3590D01*
Y3612D01*
X3930Y3617D01*
X3919D01*
X3914Y3612D01*
Y3606D01*
X3919Y3601D01*
X3935D01*
X3960Y3392D02*
Y3365D01*
X3965Y3360D01*
X3976D01*
X3981Y3365D01*
Y3392D01*
X3992Y3360D02*
X4003D01*
X3997D01*
Y3392D01*
X3992Y3387D01*
X3575Y3235D02*
Y3267D01*
X3591D01*
X3596Y3262D01*
Y3251D01*
X3591Y3246D01*
X3575D01*
X3586D02*
X3596Y3235D01*
X3607D02*
X3618D01*
X3612D01*
Y3267D01*
X3607Y3262D01*
X3634D02*
X3639Y3267D01*
X3650D01*
X3655Y3262D01*
Y3256D01*
X3650Y3251D01*
X3655Y3246D01*
Y3240D01*
X3650Y3235D01*
X3639D01*
X3634Y3240D01*
Y3246D01*
X3639Y3251D01*
X3634Y3256D01*
Y3262D01*
X3639Y3251D02*
X3650D01*
X3470Y3740D02*
Y3772D01*
X3486D01*
X3491Y3767D01*
Y3756D01*
X3486Y3751D01*
X3470D01*
X3481D02*
X3491Y3740D01*
X3502D02*
X3513D01*
X3507D01*
Y3772D01*
X3502Y3767D01*
X3529Y3772D02*
X3550D01*
Y3767D01*
X3529Y3745D01*
Y3740D01*
X5025Y3705D02*
X4993D01*
Y3721D01*
X4998Y3726D01*
X5009D01*
X5014Y3721D01*
Y3705D01*
Y3716D02*
X5025Y3726D01*
Y3737D02*
Y3748D01*
Y3742D01*
X4993D01*
X4998Y3737D01*
X4993Y3785D02*
X4998Y3774D01*
X5009Y3764D01*
X5020D01*
X5025Y3769D01*
Y3780D01*
X5020Y3785D01*
X5014D01*
X5009Y3780D01*
Y3764D01*
X4999Y3996D02*
Y4028D01*
X5015D01*
X5020Y4023D01*
Y4012D01*
X5015Y4007D01*
X4999D01*
X5010D02*
X5020Y3996D01*
X5031D02*
X5042D01*
X5036D01*
Y4028D01*
X5031Y4023D01*
X5079Y4028D02*
X5058D01*
Y4012D01*
X5068Y4017D01*
X5074D01*
X5079Y4012D01*
Y4001D01*
X5074Y3996D01*
X5063D01*
X5058Y4001D01*
X5025Y3300D02*
X4993D01*
Y3316D01*
X4998Y3321D01*
X5009D01*
X5014Y3316D01*
Y3300D01*
Y3311D02*
X5025Y3321D01*
Y3332D02*
Y3343D01*
Y3337D01*
X4993D01*
X4998Y3332D01*
X5025Y3375D02*
X4993D01*
X5009Y3359D01*
Y3380D01*
X5000Y3595D02*
Y3627D01*
X5016D01*
X5021Y3622D01*
Y3611D01*
X5016Y3606D01*
X5000D01*
X5011D02*
X5021Y3595D01*
X5032D02*
X5043D01*
X5037D01*
Y3627D01*
X5032Y3622D01*
X5059D02*
X5064Y3627D01*
X5075D01*
X5080Y3622D01*
Y3616D01*
X5075Y3611D01*
X5069D01*
X5075D01*
X5080Y3606D01*
Y3600D01*
X5075Y3595D01*
X5064D01*
X5059Y3600D01*
X5025Y2900D02*
X4993D01*
Y2916D01*
X4998Y2921D01*
X5009D01*
X5014Y2916D01*
Y2900D01*
Y2911D02*
X5025Y2921D01*
Y2932D02*
Y2943D01*
Y2937D01*
X4993D01*
X4998Y2932D01*
X5025Y2980D02*
Y2959D01*
X5004Y2980D01*
X4998D01*
X4993Y2975D01*
Y2964D01*
X4998Y2959D01*
X5010Y3195D02*
Y3227D01*
X5026D01*
X5031Y3222D01*
Y3211D01*
X5026Y3206D01*
X5010D01*
X5021D02*
X5031Y3195D01*
X5042D02*
X5053D01*
X5047D01*
Y3227D01*
X5042Y3222D01*
X5069Y3195D02*
X5079D01*
X5074D01*
Y3227D01*
X5069Y3222D01*
X5030Y2485D02*
X4998D01*
Y2501D01*
X5003Y2506D01*
X5014D01*
X5019Y2501D01*
Y2485D01*
Y2496D02*
X5030Y2506D01*
Y2517D02*
Y2528D01*
Y2522D01*
X4998D01*
X5003Y2517D01*
Y2544D02*
X4998Y2549D01*
Y2560D01*
X5003Y2565D01*
X5025D01*
X5030Y2560D01*
Y2549D01*
X5025Y2544D01*
X5003D01*
X5020Y2790D02*
Y2822D01*
X5036D01*
X5041Y2817D01*
Y2806D01*
X5036Y2801D01*
X5020D01*
X5031D02*
X5041Y2790D01*
X5052Y2795D02*
X5057Y2790D01*
X5068D01*
X5073Y2795D01*
Y2817D01*
X5068Y2822D01*
X5057D01*
X5052Y2817D01*
Y2811D01*
X5057Y2806D01*
X5073D01*
X4720Y2375D02*
Y2407D01*
X4736D01*
X4741Y2402D01*
Y2391D01*
X4736Y2386D01*
X4720D01*
X4731D02*
X4741Y2375D01*
X4752Y2402D02*
X4757Y2407D01*
X4768D01*
X4773Y2402D01*
Y2396D01*
X4768Y2391D01*
X4773Y2386D01*
Y2380D01*
X4768Y2375D01*
X4757D01*
X4752Y2380D01*
Y2386D01*
X4757Y2391D01*
X4752Y2396D01*
Y2402D01*
X4757Y2391D02*
X4768D01*
X4925Y2425D02*
Y2457D01*
X4941D01*
X4946Y2452D01*
Y2441D01*
X4941Y2436D01*
X4925D01*
X4936D02*
X4946Y2425D01*
X4957Y2457D02*
X4978D01*
Y2452D01*
X4957Y2430D01*
Y2425D01*
X4310Y2375D02*
Y2407D01*
X4326D01*
X4331Y2402D01*
Y2391D01*
X4326Y2386D01*
X4310D01*
X4321D02*
X4331Y2375D01*
X4363Y2407D02*
X4353Y2402D01*
X4342Y2391D01*
Y2380D01*
X4347Y2375D01*
X4358D01*
X4363Y2380D01*
Y2386D01*
X4358Y2391D01*
X4342D01*
X4525Y2425D02*
Y2457D01*
X4541D01*
X4546Y2452D01*
Y2441D01*
X4541Y2436D01*
X4525D01*
X4536D02*
X4546Y2425D01*
X4578Y2457D02*
X4557D01*
Y2441D01*
X4568Y2446D01*
X4573D01*
X4578Y2441D01*
Y2430D01*
X4573Y2425D01*
X4562D01*
X4557Y2430D01*
X3920Y2370D02*
Y2402D01*
X3936D01*
X3941Y2397D01*
Y2386D01*
X3936Y2381D01*
X3920D01*
X3931D02*
X3941Y2370D01*
X3968D02*
Y2402D01*
X3952Y2386D01*
X3973D01*
X4125Y2425D02*
Y2457D01*
X4141D01*
X4146Y2452D01*
Y2441D01*
X4141Y2436D01*
X4125D01*
X4136D02*
X4146Y2425D01*
X4157Y2452D02*
X4162Y2457D01*
X4173D01*
X4178Y2452D01*
Y2446D01*
X4173Y2441D01*
X4168D01*
X4173D01*
X4178Y2436D01*
Y2430D01*
X4173Y2425D01*
X4162D01*
X4157Y2430D01*
X3520Y2370D02*
Y2402D01*
X3536D01*
X3541Y2397D01*
Y2386D01*
X3536Y2381D01*
X3520D01*
X3531D02*
X3541Y2370D01*
X3573D02*
X3552D01*
X3573Y2391D01*
Y2397D01*
X3568Y2402D01*
X3557D01*
X3552Y2397D01*
X3725Y2425D02*
Y2457D01*
X3741D01*
X3746Y2452D01*
Y2441D01*
X3741Y2436D01*
X3725D01*
X3736D02*
X3746Y2425D01*
X3757D02*
X3768D01*
X3762D01*
Y2457D01*
X3757Y2452D01*
X4766Y3042D02*
X4761Y3047D01*
X4750D01*
X4745Y3042D01*
Y3020D01*
X4750Y3015D01*
X4761D01*
X4766Y3020D01*
X4777Y3042D02*
X4782Y3047D01*
X4793D01*
X4798Y3042D01*
Y3036D01*
X4793Y3031D01*
X4788D01*
X4793D01*
X4798Y3026D01*
Y3020D01*
X4793Y3015D01*
X4782D01*
X4777Y3020D01*
X4830Y3015D02*
X4809D01*
X4830Y3036D01*
Y3042D01*
X4825Y3047D01*
X4814D01*
X4809Y3042D01*
X4516Y3287D02*
X4511Y3292D01*
X4500D01*
X4495Y3287D01*
Y3265D01*
X4500Y3260D01*
X4511D01*
X4516Y3265D01*
X4527Y3287D02*
X4532Y3292D01*
X4543D01*
X4548Y3287D01*
Y3281D01*
X4543Y3276D01*
X4538D01*
X4543D01*
X4548Y3271D01*
Y3265D01*
X4543Y3260D01*
X4532D01*
X4527Y3265D01*
X4559Y3260D02*
X4570D01*
X4564D01*
Y3292D01*
X4559Y3287D01*
X4151Y3927D02*
X4146Y3932D01*
X4135D01*
X4130Y3927D01*
Y3905D01*
X4135Y3900D01*
X4146D01*
X4151Y3905D01*
X4162Y3927D02*
X4167Y3932D01*
X4178D01*
X4183Y3927D01*
Y3921D01*
X4178Y3916D01*
X4173D01*
X4178D01*
X4183Y3911D01*
Y3905D01*
X4178Y3900D01*
X4167D01*
X4162Y3905D01*
X4194Y3927D02*
X4199Y3932D01*
X4210D01*
X4215Y3927D01*
Y3905D01*
X4210Y3900D01*
X4199D01*
X4194Y3905D01*
Y3927D01*
X3981Y3487D02*
X3976Y3492D01*
X3965D01*
X3960Y3487D01*
Y3465D01*
X3965Y3460D01*
X3976D01*
X3981Y3465D01*
X4013Y3460D02*
X3992D01*
X4013Y3481D01*
Y3487D01*
X4008Y3492D01*
X3997D01*
X3992Y3487D01*
X4024Y3465D02*
X4029Y3460D01*
X4040D01*
X4045Y3465D01*
Y3487D01*
X4040Y3492D01*
X4029D01*
X4024Y3487D01*
Y3481D01*
X4029Y3476D01*
X4045D01*
X4151Y3757D02*
X4146Y3762D01*
X4135D01*
X4130Y3757D01*
Y3735D01*
X4135Y3730D01*
X4146D01*
X4151Y3735D01*
X4183Y3730D02*
X4162D01*
X4183Y3751D01*
Y3757D01*
X4178Y3762D01*
X4167D01*
X4162Y3757D01*
X4194D02*
X4199Y3762D01*
X4210D01*
X4215Y3757D01*
Y3751D01*
X4210Y3746D01*
X4215Y3741D01*
Y3735D01*
X4210Y3730D01*
X4199D01*
X4194Y3735D01*
Y3741D01*
X4199Y3746D01*
X4194Y3751D01*
Y3757D01*
X4199Y3746D02*
X4210D01*
X3981Y3547D02*
X3976Y3552D01*
X3965D01*
X3960Y3547D01*
Y3525D01*
X3965Y3520D01*
X3976D01*
X3981Y3525D01*
X4013Y3520D02*
X3992D01*
X4013Y3541D01*
Y3547D01*
X4008Y3552D01*
X3997D01*
X3992Y3547D01*
X4024Y3552D02*
X4045D01*
Y3547D01*
X4024Y3525D01*
Y3520D01*
X5063Y3721D02*
X5058Y3716D01*
Y3705D01*
X5063Y3700D01*
X5085D01*
X5090Y3705D01*
Y3716D01*
X5085Y3721D01*
X5090Y3753D02*
Y3732D01*
X5069Y3753D01*
X5063D01*
X5058Y3748D01*
Y3737D01*
X5063Y3732D01*
X5058Y3785D02*
X5063Y3775D01*
X5074Y3764D01*
X5085D01*
X5090Y3769D01*
Y3780D01*
X5085Y3785D01*
X5079D01*
X5074Y3780D01*
Y3764D01*
X4933Y3721D02*
X4928Y3716D01*
Y3705D01*
X4933Y3700D01*
X4955D01*
X4960Y3705D01*
Y3716D01*
X4955Y3721D01*
X4960Y3753D02*
Y3732D01*
X4939Y3753D01*
X4933D01*
X4928Y3748D01*
Y3737D01*
X4933Y3732D01*
X4928Y3785D02*
Y3764D01*
X4944D01*
X4939Y3775D01*
Y3780D01*
X4944Y3785D01*
X4955D01*
X4960Y3780D01*
Y3769D01*
X4955Y3764D01*
X5063Y3321D02*
X5058Y3316D01*
Y3305D01*
X5063Y3300D01*
X5085D01*
X5090Y3305D01*
Y3316D01*
X5085Y3321D01*
X5090Y3353D02*
Y3332D01*
X5069Y3353D01*
X5063D01*
X5058Y3348D01*
Y3337D01*
X5063Y3332D01*
X5090Y3380D02*
X5058D01*
X5074Y3364D01*
Y3385D01*
X4933Y3316D02*
X4928Y3311D01*
Y3300D01*
X4933Y3295D01*
X4955D01*
X4960Y3300D01*
Y3311D01*
X4955Y3316D01*
X4960Y3348D02*
Y3327D01*
X4939Y3348D01*
X4933D01*
X4928Y3343D01*
Y3332D01*
X4933Y3327D01*
Y3359D02*
X4928Y3364D01*
Y3375D01*
X4933Y3380D01*
X4939D01*
X4944Y3375D01*
Y3370D01*
Y3375D01*
X4949Y3380D01*
X4955D01*
X4960Y3375D01*
Y3364D01*
X4955Y3359D01*
X5073Y2921D02*
X5068Y2916D01*
Y2905D01*
X5073Y2900D01*
X5095D01*
X5100Y2905D01*
Y2916D01*
X5095Y2921D01*
X5100Y2953D02*
Y2932D01*
X5079Y2953D01*
X5073D01*
X5068Y2948D01*
Y2937D01*
X5073Y2932D01*
X5100Y2985D02*
Y2964D01*
X5079Y2985D01*
X5073D01*
X5068Y2980D01*
Y2969D01*
X5073Y2964D01*
X4933Y2926D02*
X4928Y2921D01*
Y2910D01*
X4933Y2905D01*
X4955D01*
X4960Y2910D01*
Y2921D01*
X4955Y2926D01*
X4960Y2958D02*
Y2937D01*
X4939Y2958D01*
X4933D01*
X4928Y2953D01*
Y2942D01*
X4933Y2937D01*
X4960Y2969D02*
Y2980D01*
Y2974D01*
X4928D01*
X4933Y2969D01*
X5063Y2511D02*
X5058Y2506D01*
Y2495D01*
X5063Y2490D01*
X5085D01*
X5090Y2495D01*
Y2506D01*
X5085Y2511D01*
X5090Y2543D02*
Y2522D01*
X5069Y2543D01*
X5063D01*
X5058Y2538D01*
Y2527D01*
X5063Y2522D01*
Y2554D02*
X5058Y2559D01*
Y2570D01*
X5063Y2575D01*
X5085D01*
X5090Y2570D01*
Y2559D01*
X5085Y2554D01*
X5063D01*
X4938Y2511D02*
X4933Y2506D01*
Y2495D01*
X4938Y2490D01*
X4960D01*
X4965Y2495D01*
Y2506D01*
X4960Y2511D01*
X4965Y2522D02*
Y2533D01*
Y2527D01*
X4933D01*
X4938Y2522D01*
X4960Y2549D02*
X4965Y2554D01*
Y2565D01*
X4960Y2570D01*
X4938D01*
X4933Y2565D01*
Y2554D01*
X4938Y2549D01*
X4944D01*
X4949Y2554D01*
Y2570D01*
X4716Y2332D02*
X4711Y2337D01*
X4700D01*
X4695Y2332D01*
Y2310D01*
X4700Y2305D01*
X4711D01*
X4716Y2310D01*
X4727Y2305D02*
X4738D01*
X4732D01*
Y2337D01*
X4727Y2332D01*
X4754D02*
X4759Y2337D01*
X4770D01*
X4775Y2332D01*
Y2326D01*
X4770Y2321D01*
X4775Y2316D01*
Y2310D01*
X4770Y2305D01*
X4759D01*
X4754Y2310D01*
Y2316D01*
X4759Y2321D01*
X4754Y2326D01*
Y2332D01*
X4759Y2321D02*
X4770D01*
X4726Y2462D02*
X4721Y2467D01*
X4710D01*
X4705Y2462D01*
Y2440D01*
X4710Y2435D01*
X4721D01*
X4726Y2440D01*
X4737Y2435D02*
X4748D01*
X4742D01*
Y2467D01*
X4737Y2462D01*
X4764Y2467D02*
X4785D01*
Y2462D01*
X4764Y2440D01*
Y2435D01*
X4306Y2337D02*
X4301Y2342D01*
X4290D01*
X4285Y2337D01*
Y2315D01*
X4290Y2310D01*
X4301D01*
X4306Y2315D01*
X4317Y2310D02*
X4328D01*
X4322D01*
Y2342D01*
X4317Y2337D01*
X4365Y2342D02*
X4354Y2337D01*
X4344Y2326D01*
Y2315D01*
X4349Y2310D01*
X4360D01*
X4365Y2315D01*
Y2321D01*
X4360Y2326D01*
X4344D01*
X4321Y2467D02*
X4316Y2472D01*
X4305D01*
X4300Y2467D01*
Y2445D01*
X4305Y2440D01*
X4316D01*
X4321Y2445D01*
X4332Y2440D02*
X4343D01*
X4337D01*
Y2472D01*
X4332Y2467D01*
X4380Y2472D02*
X4359D01*
Y2456D01*
X4369Y2461D01*
X4375D01*
X4380Y2456D01*
Y2445D01*
X4375Y2440D01*
X4364D01*
X4359Y2445D01*
X3921Y2337D02*
X3916Y2342D01*
X3905D01*
X3900Y2337D01*
Y2315D01*
X3905Y2310D01*
X3916D01*
X3921Y2315D01*
X3932Y2310D02*
X3943D01*
X3937D01*
Y2342D01*
X3932Y2337D01*
X3975Y2310D02*
Y2342D01*
X3959Y2326D01*
X3980D01*
X4241Y2557D02*
X4236Y2562D01*
X4225D01*
X4220Y2557D01*
Y2535D01*
X4225Y2530D01*
X4236D01*
X4241Y2535D01*
X4252Y2530D02*
X4263D01*
X4257D01*
Y2562D01*
X4252Y2557D01*
X4279D02*
X4284Y2562D01*
X4295D01*
X4300Y2557D01*
Y2551D01*
X4295Y2546D01*
X4289D01*
X4295D01*
X4300Y2541D01*
Y2535D01*
X4295Y2530D01*
X4284D01*
X4279Y2535D01*
X4276Y2752D02*
X4271Y2757D01*
X4260D01*
X4255Y2752D01*
Y2730D01*
X4260Y2725D01*
X4271D01*
X4276Y2730D01*
X4287Y2725D02*
X4298D01*
X4292D01*
Y2757D01*
X4287Y2752D01*
X4335Y2725D02*
X4314D01*
X4335Y2746D01*
Y2752D01*
X4330Y2757D01*
X4319D01*
X4314Y2752D01*
X3871Y3297D02*
X3866Y3302D01*
X3855D01*
X3850Y3297D01*
Y3275D01*
X3855Y3270D01*
X3866D01*
X3871Y3275D01*
X3882Y3270D02*
X3893D01*
X3887D01*
Y3302D01*
X3882Y3297D01*
X3909Y3270D02*
X3919D01*
X3914D01*
Y3302D01*
X3909Y3297D01*
X4276Y2812D02*
X4271Y2817D01*
X4260D01*
X4255Y2812D01*
Y2790D01*
X4260Y2785D01*
X4271D01*
X4276Y2790D01*
X4287Y2785D02*
X4298D01*
X4292D01*
Y2817D01*
X4287Y2812D01*
X4314D02*
X4319Y2817D01*
X4330D01*
X4335Y2812D01*
Y2790D01*
X4330Y2785D01*
X4319D01*
X4314Y2790D01*
Y2812D01*
X3801Y3297D02*
X3796Y3302D01*
X3785D01*
X3780Y3297D01*
Y3275D01*
X3785Y3270D01*
X3796D01*
X3801Y3275D01*
X3812D02*
X3817Y3270D01*
X3828D01*
X3833Y3275D01*
Y3297D01*
X3828Y3302D01*
X3817D01*
X3812Y3297D01*
Y3291D01*
X3817Y3286D01*
X3833D01*
X3941Y2467D02*
X3936Y2472D01*
X3925D01*
X3920Y2467D01*
Y2445D01*
X3925Y2440D01*
X3936D01*
X3941Y2445D01*
X3952Y2467D02*
X3957Y2472D01*
X3968D01*
X3973Y2467D01*
Y2461D01*
X3968Y2456D01*
X3973Y2451D01*
Y2445D01*
X3968Y2440D01*
X3957D01*
X3952Y2445D01*
Y2451D01*
X3957Y2456D01*
X3952Y2461D01*
Y2467D01*
X3957Y2456D02*
X3968D01*
X3541Y2337D02*
X3536Y2342D01*
X3525D01*
X3520Y2337D01*
Y2315D01*
X3525Y2310D01*
X3536D01*
X3541Y2315D01*
X3552Y2342D02*
X3573D01*
Y2337D01*
X3552Y2315D01*
Y2310D01*
X3541Y2457D02*
X3536Y2462D01*
X3525D01*
X3520Y2457D01*
Y2435D01*
X3525Y2430D01*
X3536D01*
X3541Y2435D01*
X3573Y2462D02*
X3563Y2457D01*
X3552Y2446D01*
Y2435D01*
X3557Y2430D01*
X3568D01*
X3573Y2435D01*
Y2441D01*
X3568Y2446D01*
X3552D01*
X4431Y3757D02*
X4426Y3762D01*
X4415D01*
X4410Y3757D01*
Y3735D01*
X4415Y3730D01*
X4426D01*
X4431Y3735D01*
X4463Y3762D02*
X4442D01*
Y3746D01*
X4453Y3751D01*
X4458D01*
X4463Y3746D01*
Y3735D01*
X4458Y3730D01*
X4447D01*
X4442Y3735D01*
X4361Y3547D02*
X4356Y3552D01*
X4345D01*
X4340Y3547D01*
Y3525D01*
X4345Y3520D01*
X4356D01*
X4361Y3525D01*
X4388Y3520D02*
Y3552D01*
X4372Y3536D01*
X4393D01*
X4671Y3287D02*
X4666Y3292D01*
X4655D01*
X4650Y3287D01*
Y3265D01*
X4655Y3260D01*
X4666D01*
X4671Y3265D01*
X4682Y3287D02*
X4687Y3292D01*
X4698D01*
X4703Y3287D01*
Y3281D01*
X4698Y3276D01*
X4693D01*
X4698D01*
X4703Y3271D01*
Y3265D01*
X4698Y3260D01*
X4687D01*
X4682Y3265D01*
X4361Y3487D02*
X4356Y3492D01*
X4345D01*
X4340Y3487D01*
Y3465D01*
X4345Y3460D01*
X4356D01*
X4361Y3465D01*
X4393Y3460D02*
X4372D01*
X4393Y3481D01*
Y3487D01*
X4388Y3492D01*
X4377D01*
X4372Y3487D01*
X4611Y3287D02*
X4606Y3292D01*
X4595D01*
X4590Y3287D01*
Y3265D01*
X4595Y3260D01*
X4606D01*
X4611Y3265D01*
X4622Y3260D02*
X4633D01*
X4627D01*
Y3292D01*
X4622Y3287D01*
X5254Y3982D02*
Y4003D01*
X5265Y4014D01*
X5275Y4003D01*
Y3982D01*
Y3998D01*
X5254D01*
X5286Y4009D02*
X5291Y4014D01*
X5302D01*
X5307Y4009D01*
Y4003D01*
X5302Y3998D01*
X5307Y3993D01*
Y3987D01*
X5302Y3982D01*
X5291D01*
X5286Y3987D01*
Y3993D01*
X5291Y3998D01*
X5286Y4003D01*
Y4009D01*
X5291Y3998D02*
X5302D01*
X5254Y3582D02*
Y3603D01*
X5265Y3614D01*
X5275Y3603D01*
Y3582D01*
Y3598D01*
X5254D01*
X5286Y3614D02*
X5307D01*
Y3609D01*
X5286Y3587D01*
Y3582D01*
X5254Y3182D02*
Y3203D01*
X5265Y3214D01*
X5275Y3203D01*
Y3182D01*
Y3198D01*
X5254D01*
X5307Y3214D02*
X5297Y3209D01*
X5286Y3198D01*
Y3187D01*
X5291Y3182D01*
X5302D01*
X5307Y3187D01*
Y3193D01*
X5302Y3198D01*
X5286D01*
X5254Y2782D02*
Y2803D01*
X5265Y2814D01*
X5275Y2803D01*
Y2782D01*
Y2798D01*
X5254D01*
X5307Y2814D02*
X5286D01*
Y2798D01*
X5297Y2803D01*
X5302D01*
X5307Y2798D01*
Y2787D01*
X5302Y2782D01*
X5291D01*
X5286Y2787D01*
X4754Y2182D02*
Y2203D01*
X4765Y2214D01*
X4775Y2203D01*
Y2182D01*
Y2198D01*
X4754D01*
X4802Y2182D02*
Y2214D01*
X4786Y2198D01*
X4807D01*
X4354Y2182D02*
Y2203D01*
X4365Y2214D01*
X4375Y2203D01*
Y2182D01*
Y2198D01*
X4354D01*
X4386Y2209D02*
X4391Y2214D01*
X4402D01*
X4407Y2209D01*
Y2203D01*
X4402Y2198D01*
X4397D01*
X4402D01*
X4407Y2193D01*
Y2187D01*
X4402Y2182D01*
X4391D01*
X4386Y2187D01*
X3954Y2182D02*
Y2203D01*
X3965Y2214D01*
X3975Y2203D01*
Y2182D01*
Y2198D01*
X3954D01*
X4007Y2182D02*
X3986D01*
X4007Y2203D01*
Y2209D01*
X4002Y2214D01*
X3991D01*
X3986Y2209D01*
X3554Y2182D02*
Y2203D01*
X3565Y2214D01*
X3575Y2203D01*
Y2182D01*
Y2198D01*
X3554D01*
X3586Y2182D02*
X3597D01*
X3591D01*
Y2214D01*
X3586Y2209D01*
M02*
