G04 Layer_Color=255*
%FSLAX23Y23*%
%MOIN*%
G70*
G01*
G75*
%ADD11R,0.031X0.035*%
%ADD17R,0.059X0.059*%
%ADD18C,0.059*%
%ADD19R,0.059X0.059*%
%ADD20C,0.053*%
%ADD21R,0.053X0.053*%
%ADD22R,0.053X0.053*%
D11*
X4578Y2925D02*
D03*
X4522D02*
D03*
D17*
X4300Y4000D02*
D03*
X3700Y2100D02*
D03*
X4100D02*
D03*
X4500D02*
D03*
X4900D02*
D03*
X3900Y4000D02*
D03*
X4800Y2600D02*
D03*
D18*
X4400Y4000D02*
D03*
X3500Y3400D02*
D03*
Y3300D02*
D03*
Y2900D02*
D03*
Y2800D02*
D03*
Y2700D02*
D03*
Y2600D02*
D03*
X3600Y2100D02*
D03*
X4000D02*
D03*
X4400D02*
D03*
X4800D02*
D03*
X5300Y2600D02*
D03*
Y3000D02*
D03*
Y3400D02*
D03*
Y3800D02*
D03*
X3800Y4000D02*
D03*
X4500Y2600D02*
D03*
X4600D02*
D03*
X4700D02*
D03*
X3700D02*
D03*
Y2700D02*
D03*
Y2800D02*
D03*
Y2900D02*
D03*
Y3400D02*
D03*
Y3500D02*
D03*
Y3600D02*
D03*
Y3700D02*
D03*
D19*
X3500Y3500D02*
D03*
Y3000D02*
D03*
X5300Y2700D02*
D03*
Y3100D02*
D03*
Y3500D02*
D03*
Y3900D02*
D03*
X3700Y3000D02*
D03*
Y3800D02*
D03*
D20*
X4232Y3670D02*
D03*
X4037Y2625D02*
D03*
X3942Y3670D02*
D03*
Y3850D02*
D03*
X4790Y3092D02*
D03*
D21*
X4428Y3670D02*
D03*
X4233Y2625D02*
D03*
X4138Y3670D02*
D03*
Y3850D02*
D03*
D22*
X4790Y3288D02*
D03*
M02*
